<svg width="400" height="400" version="1.1" viewBox="0 0 400 400" xmlns="http://www.w3.org/2000/svg"><defs><style>.cls-1 {
        fill-rule: evenodd;
      }</style></defs><path d="m117 0v25h7.2c13 0 23 2.2 32 6.7 8.9 4.5 13 15 13 32v11h-18c-28-.007-52 3.7-71 11-19 7.5-35 18-47 30-12 13-21 27-26 43-4.4 13-7.6 27-7.6 41s3.2 28 7.6 41c5.3 16 14 30 26 43 12 13 28 23 47 30 19 7.5 43 11 71 11h18v11c0 17-4.4 27-13 32-8.9 4.5-20 6.7-32 6.7h-7.2v25h166v-25h-7.2c-13 0-23-2.2-32-6.7-8.9-4.5-13-15-13-32v-11h18c28 0 52-3.7 71-11 19-7.5 35-18 47-30 12-13 21-27 26-43 4.4-13 7.7-27 7.7-41s-3.2-28-7.7-41c-5.4-16-14-30-26-43-12-13-28-23-47-30-19-7.5-43-11-71-11h-18v-11c0-17 4.4-27 13-32 8.9-4.5 20-6.7 32-6.7h7.2v-25zm114 103h13c32-.007 55 8.2 69 25 13 15 20 40 21 72-.71 33-7.7 57-21 72-14 16-37 25-69 25h-13v-97zm-75 .00065h14v194h-14c-32 0-55-8.2-69-25-13-15-20-40-21-72 .71-33 7.7-57 21-72 14-16 37-25 69-25z"/></svg>
