<?xml version="1.0" encoding="UTF-8"?>
<!-- Created with Inkscape (http://www.inkscape.org/) -->
<!-- Milkshake &#169; https://www.boldfacedgoods.com/products/milkshake-2 -->
<svg width="81.933" height="78.789" version="1.1" viewBox="0 0 81.933 78.789" xmlns="http://www.w3.org/2000/svg">
 <path d="m79.772 54.623s2.1613-2.9472 2.1613-4.7156c0-2.1613-1.7683-3.9296-4.1261-3.9296s-4.3226 2.7508-4.3226 2.7508-11.985 17.88-29.865 17.88c-10.807 0-19.452-6.4839-19.452-20.041 0-17.88 11.199-36.939 22.595-36.939 3.1437 0 5.698 1.9648 5.698 4.1261 0 4.1261-7.8593 5.305-7.8593 11.985 0 4.3226 4.7156 8.2522 10.021 8.2522 5.1085 0 11.789-8.2522 11.789-14.933 0-9.0382-8.4487-19.059-22.399-19.059-20.041 0-44.012 22.595-44.012 48.924 0 22.006 18.666 29.865 35.563 29.865 27.9 0 44.208-24.167 44.208-24.167z" fill="#570df8" stroke-width="16.374"/>
</svg>
