<?xml version="1.0" encoding="UTF-8"?>
<!-- Created with Inkscape (http://www.inkscape.org/) -->
<!-- Milkshake © https://www.boldfacedgoods.com/products/milkshake-2 -->
<svg version="1.1" viewBox="0 0 764.31 192.75" xmlns="http://www.w3.org/2000/svg">
  <g fill="currentColor" stroke-width="16.374" aria-label="cryptalent">
    <path d="m79.772 114.55s2.1613-2.9472 2.1613-4.7156c0-2.1613-1.7683-3.9296-4.1261-3.9296s-4.3226 2.7508-4.3226 2.7508-11.985 17.88-29.865 17.88c-10.807 0-19.452-6.4839-19.452-20.041 0-17.88 11.199-36.939 22.595-36.939 3.1437 0 5.698 1.9648 5.698 4.1261 0 4.1261-7.8593 5.305-7.8593 11.985 0 4.3226 4.7156 8.2522 10.021 8.2522 5.1085 0 11.789-8.2522 11.789-14.933 0-9.0382-8.4487-19.059-22.399-19.059-20.041 0-44.012 22.595-44.012 48.924 0 22.006 18.666 29.865 35.563 29.865 27.9 0 44.208-24.167 44.208-24.167z" />
    <path d="m123.19 118.68c0-15.915 14.54-32.616 14.54-41.458 0-5.1085-3.3402-9.4311-8.0558-9.4311-4.7156 0-7.4663 2.5543-16.308 2.5543-4.7156 0-8.2522-1.3754-8.2522-4.1261 0-3.1437 2.5543-6.2874 2.5543-11.396 0-3.9296-6.6804-10.217-12.182-10.217-4.7156 0-11.396 6.4839-11.396 14.54 0 9.8241 6.4839 14.54 6.4839 14.54-5.698 18.469-13.557 29.865-17.094 34.974-0.58945 0.98241-2.1613 2.9472-2.1613 4.7156 0 1.9648 2.1613 4.1261 4.1261 4.1261 2.3578 0 3.7332-2.1613 4.3226-2.9472 4.1261-6.0909 11.592-18.076 19.059-37.135 0 0 11.789 0.78593 11.789 4.7156 0 6.0909-12.378 19.648-12.378 36.939 0 10.807 10.021 19.648 24.953 19.648 19.452 0 33.795-24.167 33.795-24.167s1.7683-2.9472 1.7683-4.7156c0-2.1613-1.9648-3.9296-4.1261-3.9296-2.3578 0-3.9296 2.7508-3.9296 2.7508s-10.414 16.897-21.024 16.897c-3.9296 0-6.4839-2.3578-6.4839-6.8769z" />
    <path d="m218.68 122.8c5.698-19.452 12.575-46.173 12.575-51.675 0-2.9472-9.6276-11.199-15.326-11.199-2.5543 0-4.912 1.3754-5.5015 3.7332-3.9296 13.361-9.0382 35.17-16.504 48.728-3.3402 6.0909-11.003 13.95-17.29 13.95-2.9472 0-4.5191-2.7508-4.5191-5.8945 0-17.29 12.771-39.1 12.771-49.317 0-2.9472-9.6276-11.199-15.522-11.199-2.3578 0-4.3226 1.5719-5.305 3.7332-4.7156 11.003-15.326 41.851-15.326 55.997 0 10.61 11.396 19.059 20.434 19.059 10.217 0 20.631-7.4663 26.918-14.736-0.98241 4.7156-2.3578 11.592-4.3226 18.862-23.774 9.4311-41.065 17.88-41.065 31.241 0 10.414 10.217 18.666 22.202 18.666 23.774 0 33.795-26.329 40.475-49.906 18.076-9.4311 28.293-19.059 35.17-28.293 0 0 2.1613-2.9472 2.1613-4.7156 0-2.1613-1.7683-3.9296-4.1261-3.9296-2.3578 0-4.3226 2.7508-4.3226 2.7508-5.698 7.8593-13.557 15.719-25.936 22.988zm-50.692 59.534c-2.3578 0-3.5367-1.3754-3.5367-3.9296 0-5.5015 9.8241-15.522 23.774-23.381-4.7156 14.343-11.592 27.311-20.238 27.311z" />
    <path d="m339.91 114.55s1.7683-2.9472 1.7683-4.7156c0-2.1613-1.9648-3.9296-4.1261-3.9296-2.3578 0-3.9296 2.7508-3.9296 2.7508s-9.8241 13.361-23.185 13.361c-0.58944 0-1.1789 0-1.7683-0.19649 8.8417-11.396 13.95-26.329 13.95-37.332 0-11.396-9.6276-24.56-23.578-24.56-11.592 0-25.543 12.575-25.543 12.575-6.0909-9.4311-10.807-10.61-13.557-10.61-2.5543 0-4.5191 1.3754-5.5015 3.7332-10.217 27.704-27.704 95.687-27.704 109.64 0 10.61 10.414 13.95 17.88 13.95 2.7507 0 3.7332-1.1789 3.7332-4.3226 0-15.326 6.0909-44.601 10.61-56.194 0 0 7.0734 10.021 19.648 10.021 7.8593 0 14.933-2.9472 21.024-7.6628 2.1613 0.19648 4.3226 0.39296 6.091 0.39296 22.988 0 34.188-16.897 34.188-16.897zm-75.842-1.7683c0-13.95 17.487-39.493 27.704-39.493 4.3226 0 6.6804 2.5543 6.6804 9.6276 0 6.2874-3.3402 19.255-8.4487 29.669-3.3402 0.19648-9.6276 5.5015-9.6276 9.6276 0 0.98241 0.39296 1.9648 0.98241 2.7508-2.1613 1.9648-4.3226 2.9472-6.4839 2.9472-6.4839 0-10.807-7.4663-10.807-15.129z" />
    <path d="m366.05 125.55c-5.698 0-10.414-4.3226-10.414-10.217 0-14.147 7.2698-36.153 13.754-53.64h12.182c2.5543 0 5.8945-4.912 5.8945-6.8769 0-1.1789-0.58945-1.7683-1.5719-1.7683h-13.164c3.5367-9.6276 6.4839-16.504 6.4839-18.273 0-3.5367-9.4311-11.789-15.326-11.789-2.3578 0-4.3226 1.5719-5.305 3.7332-3.5367 6.2874-7.4663 15.719-11.396 26.329h-3.9296c-2.7508 0-5.8945 4.912-5.8945 6.8769 0 1.1789 0.58944 1.7683 1.5718 1.7683h5.305c-6.8769 20.434-12.575 42.833-12.575 53.64 0 13.754 15.522 23.381 27.9 23.381 19.452 0 33.795-24.167 33.795-24.167s1.7683-2.9472 1.7683-4.7156c0-2.1613-1.9648-3.9296-4.1261-3.9296-2.3578 0-3.9296 2.7508-3.9296 2.7508s-10.414 16.897-21.024 16.897z" />
    <path d="m486.69 114.55s1.7683-2.9472 1.7683-4.7156c0-2.1613-1.9648-3.9296-4.1261-3.9296-2.3578 0-3.9296 2.7508-3.9296 2.7508s-10.414 16.897-21.024 16.897c-3.3402 0-5.5015-2.3578-5.5015-5.5015 0-13.361 11.396-35.76 11.396-41.654 0-6.8769-8.0558-9.2347-13.95-9.2347 0 0-5.5015-9.2347-21.417-9.2347-21.613 0-45.191 30.062-45.191 58.355 0 11.985 9.0382 20.434 19.648 20.434 14.933 0 27.9-16.701 27.9-16.701 1.3754 11.003 9.8241 16.701 20.631 16.701 19.452 0 33.795-24.167 33.795-24.167zm-45.584-34.777c0 15.129-17.29 44.012-26.722 44.012-4.1261 0-5.698-3.1437-5.698-8.8417 0-16.504 13.95-43.619 25.346-43.619 3.9296 0 7.0734 2.7507 7.0734 8.4487z" />
    <path d="m543.47 15.915c0 11.985-22.399 54.622-35.956 65.821 8.0558-32.812 26.525-68.572 33.598-68.572 1.3754 0 2.3578 0.98241 2.3578 2.7507zm-34.384 122.8c19.452 0 33.795-24.167 33.795-24.167s1.7683-2.9472 1.7683-4.7156c0-2.1613-1.9648-3.9296-4.1261-3.9296-2.3578 0-3.9296 2.7508-3.9296 2.7508s-10.414 16.897-21.024 16.897c-8.0558 0-12.575-6.4839-12.575-15.522 0-6.8769 1.5718-14.933 1.5718-14.933 19.648-16.701 48.728-62.285 48.728-78.986 0-7.0734-7.6628-16.112-16.504-16.112-28.293 0-57.569 69.751-57.569 109.24 0 18.469 14.343 29.472 29.865 29.472z" />
    <path d="m560.17 100.4c0-10.217 11.199-30.455 22.006-30.455 2.1613 0 3.5367 1.3754 3.5367 3.9296 0 8.2522-11.199 26.525-25.543 26.525zm52.854 14.147s1.7683-2.9472 1.7683-4.7156c0-2.1613-1.9648-3.9296-4.1261-3.9296-2.3578 0-3.9296 2.7508-3.9296 2.7508s-11.592 18.076-30.258 18.076c-9.4311 0-17.29-6.6804-17.29-18.273 0 0 5.305 1.1789 7.4663 1.1789 24.757 0 32.027-19.648 32.027-29.079 0-10.414-9.6276-20.631-21.613-20.631-17.094 0-42.047 19.845-42.047 49.906 0 16.701 14.343 28.883 34.188 28.883 29.865 0 43.815-24.167 43.815-24.167z" />
    <path d="m675.5 118.09c0-14.147 10.414-29.472 10.414-41.261 0-7.6628-8.0558-16.897-16.701-16.897-16.701 0-30.848 12.575-30.848 12.575-6.0909-9.4311-10.807-10.61-13.754-10.61-2.3578 0-4.3226 1.3754-5.305 3.7332-4.5191 11.199-15.915 40.475-15.915 62.285 0 6.2874 8.0558 10.806 18.469 10.806 2.7507 0 4.3226-0.58944 4.3226-3.9296 0-37.725 18.469-61.106 30.258-61.106 2.1613 0 3.9296 1.3754 3.9296 3.1437 0 11.789-10.021 25.936-10.021 42.047 0 11.003 10.021 19.845 24.953 19.845 19.452 0 33.795-24.167 33.795-24.167s1.7683-2.9472 1.7683-4.7156c0-2.1613-1.9648-3.9296-4.1261-3.9296-2.3578 0-3.9296 2.7508-3.9296 2.7508s-10.414 16.897-21.024 16.897c-3.9296 0-6.2874-2.9472-6.2874-7.4663z" />
    <path d="m735.23 125.55c-5.698 0-10.414-4.3226-10.414-10.217 0-14.147 7.2698-36.153 13.754-53.64h12.182c2.5543 0 5.8945-4.912 5.8945-6.8769 0-1.1789-0.58944-1.7683-1.5718-1.7683h-13.164c3.5367-9.6276 6.4839-16.504 6.4839-18.273 0-3.5367-9.4311-11.789-15.326-11.789-2.3578 0-4.3226 1.5719-5.305 3.7332-3.5367 6.2874-7.4663 15.719-11.396 26.329h-3.9296c-2.7508 0-5.8945 4.912-5.8945 6.8769 0 1.1789 0.58944 1.7683 1.5718 1.7683h5.305c-6.8769 20.434-12.575 42.833-12.575 53.64 0 13.754 15.522 23.381 27.9 23.381 19.452 0 33.795-24.167 33.795-24.167s1.7683-2.9472 1.7683-4.7156c0-2.1613-1.9648-3.9296-4.1261-3.9296-2.3578 0-3.9296 2.7508-3.9296 2.7508s-10.414 16.897-21.024 16.897z" />
  </g>
</svg>
