<?xml version="1.0" encoding="UTF-8"?>
<!-- Created with Inkscape (http://www.inkscape.org/) -->
<!-- Milkshake © https://www.boldfacedgoods.com/products/milkshake-2 -->
<svg version="1.1" viewBox="0 0 762.41 236.97" xmlns="http://www.w3.org/2000/svg">
  <g fill="currentColor" aria-label="nftalent">
    <path d="m93.113 152.48c0-18.267 13.447-38.057 13.447-53.28 0-9.8949-10.402-21.819-21.566-21.819-21.566 0-39.833 16.238-39.833 16.238-7.8652-12.178-13.954-13.701-17.76-13.701-3.0446 0-5.5817 1.776-6.8503 4.8206-5.8354 14.462-20.551 52.265-20.551 80.428 0 8.1189 10.402 13.954 23.849 13.954 3.552 0 5.5817-0.76114 5.5817-5.0743 0-48.713 23.849-78.905 39.072-78.905 2.7909 0 5.0743 1.776 5.0743 4.0594 0 15.223-12.939 33.49-12.939 54.295 0 14.208 12.939 25.625 32.222 25.625 25.118 0 43.639-31.207 43.639-31.207s2.2834-3.8057 2.2834-6.0892c0-2.7909-2.5372-5.0743-5.328-5.0743-3.0446 0-5.0743 3.552-5.0743 3.552s-13.447 21.819-27.148 21.819c-5.0743 0-8.1189-3.8057-8.1189-9.6412z" />
    <path d="m151.47 168.21s16.745 17.76 16.745 39.833c0 8.1189-2.2834 17.76-8.6263 17.76-4.3132 0-10.149-6.5966-10.149-26.64 0-13.701 2.0297-30.953 2.0297-30.953zm62.16-146.14c0 15.477-31.207 73.831-47.698 86.263 12.686-44.654 33.237-91.337 42.37-91.337 3.2983 0 5.328 2.0297 5.328 5.0743zm0.76115 125.84s2.2834-3.8057 2.2834-6.0892c0-2.7909-2.5372-5.0743-5.328-5.0743-3.0446 0-5.0743 3.552-5.0743 3.552-7.3577 9.6412-18.014 21.819-35.52 21.819-10.656 0-16.491-7.3577-16.491-7.3577 0.76114-8.6263 2.2834-17.76 5.0743-25.625 27.655-22.073 67.234-85.756 67.234-106.81 0-9.1337-11.925-22.327-23.342-22.327-38.818 0-82.204 111.13-82.204 193.84 0 32.222 22.581 43.132 37.55 43.132 16.238 0 25.879-16.745 25.879-29.685 0-22.073-14.462-33.998-14.462-33.998 25.879 0 37.55-15.73 44.4-25.372z" />
    <path d="m248.13 162.12c-7.3577 0-13.447-5.5817-13.447-13.193 0-18.267 9.3874-46.684 17.76-69.264h15.73c3.2983 0 7.6114-6.3429 7.6114-8.88 0-1.5223-0.76115-2.2834-2.0297-2.2834h-16.999c4.5669-12.432 8.3726-21.312 8.3726-23.595 0-4.5669-12.178-15.223-19.79-15.223-3.0446 0-5.5817 2.0297-6.8503 4.8206-4.5669 8.1189-9.6412 20.297-14.715 33.998h-5.0743c-3.552 0-7.6114 6.3429-7.6114 8.88 0 1.5223 0.76115 2.2834 2.0297 2.2834h6.8503c-8.88 26.386-16.238 55.31-16.238 69.264 0 17.76 20.043 30.192 36.028 30.192 25.118 0 43.639-31.207 43.639-31.207s2.2834-3.8057 2.2834-6.0892c0-2.7909-2.5372-5.0743-5.328-5.0743-3.0446 0-5.0743 3.552-5.0743 3.552s-13.447 21.819-27.148 21.819z" />
    <path d="m403.91 147.92s2.2834-3.8057 2.2834-6.0892c0-2.7909-2.5372-5.0743-5.328-5.0743-3.0446 0-5.0743 3.552-5.0743 3.552s-13.447 21.819-27.148 21.819c-4.3132 0-7.104-3.0446-7.104-7.104 0-17.253 14.715-46.176 14.715-53.788 0-8.88-10.402-11.925-18.014-11.925 0 0-7.104-11.925-27.655-11.925-27.909 0-58.354 38.818-58.354 75.353 0 15.477 11.671 26.386 25.372 26.386 19.282 0 36.028-21.566 36.028-21.566 1.776 14.208 12.686 21.566 26.64 21.566 25.118 0 43.639-31.207 43.639-31.207zm-58.862-44.908c0 19.536-22.327 56.832-34.505 56.832-5.328 0-7.3577-4.0594-7.3577-11.417 0-21.312 18.014-56.325 32.729-56.325 5.0743 0 9.1337 3.552 9.1337 10.91z" />
    <path d="m477.24 20.551c0 15.477-28.924 70.533-46.43 84.995 10.402-42.37 34.252-88.547 43.385-88.547 1.776 0 3.0446 1.2686 3.0446 3.552zm-44.4 158.57c25.118 0 43.639-31.207 43.639-31.207s2.2834-3.8057 2.2834-6.0892c0-2.7909-2.5372-5.0743-5.328-5.0743-3.0446 0-5.0743 3.552-5.0743 3.552s-13.447 21.819-27.148 21.819c-10.402 0-16.238-8.3726-16.238-20.043 0-8.88 2.0297-19.282 2.0297-19.282 25.372-21.566 62.921-80.428 62.921-101.99 0-9.1337-9.8949-20.805-21.312-20.805-36.535 0-74.338 90.069-74.338 141.07 0 23.849 18.521 38.057 38.565 38.057z" />
    <path d="m498.8 129.65c0-13.193 14.462-39.326 28.416-39.326 2.7909 0 4.5669 1.776 4.5669 5.0743 0 10.656-14.462 34.252-32.983 34.252zm68.249 18.267s2.2834-3.8057 2.2834-6.0892c0-2.7909-2.5372-5.0743-5.328-5.0743-3.0446 0-5.0743 3.552-5.0743 3.552s-14.969 23.342-39.072 23.342c-12.178 0-22.327-8.6263-22.327-23.596 0 0 6.8503 1.5223 9.6412 1.5223 31.968 0 41.356-25.372 41.356-37.55 0-13.447-12.432-26.64-27.909-26.64-22.073 0-54.295 25.625-54.295 64.444 0 21.566 18.521 37.296 44.146 37.296 38.565 0 56.578-31.207 56.578-31.207z" />
    <path d="m647.73 152.48c0-18.267 13.447-38.057 13.447-53.28 0-9.8949-10.402-21.819-21.566-21.819-21.566 0-39.833 16.238-39.833 16.238-7.8652-12.178-13.954-13.701-17.76-13.701-3.0446 0-5.5817 1.776-6.8503 4.8206-5.8354 14.462-20.551 52.265-20.551 80.428 0 8.1189 10.402 13.954 23.849 13.954 3.552 0 5.5817-0.76114 5.5817-5.0743 0-48.713 23.849-78.905 39.072-78.905 2.7909 0 5.0743 1.776 5.0743 4.0594 0 15.223-12.939 33.49-12.939 54.295 0 14.208 12.939 25.625 32.222 25.625 25.118 0 43.639-31.207 43.639-31.207s2.2834-3.8057 2.2834-6.0892c0-2.7909-2.5372-5.0743-5.328-5.0743-3.0446 0-5.0743 3.552-5.0743 3.552s-13.447 21.819-27.148 21.819c-5.0743 0-8.1189-3.8057-8.1189-9.6412z" />
    <path d="m724.86 162.12c-7.3577 0-13.447-5.5817-13.447-13.193 0-18.267 9.3875-46.684 17.76-69.264h15.73c3.2983 0 7.6114-6.3429 7.6114-8.88 0-1.5223-0.76114-2.2834-2.0297-2.2834h-16.999c4.5669-12.432 8.3726-21.312 8.3726-23.595 0-4.5669-12.178-15.223-19.79-15.223-3.0446 0-5.5817 2.0297-6.8503 4.8206-4.5669 8.1189-9.6412 20.297-14.715 33.998h-5.0743c-3.552 0-7.6114 6.3429-7.6114 8.88 0 1.5223 0.76114 2.2834 2.0297 2.2834h6.8503c-8.88 26.386-16.238 55.31-16.238 69.264 0 17.76 20.043 30.192 36.028 30.192 25.118 0 43.639-31.207 43.639-31.207s2.2834-3.8057 2.2834-6.0892c0-2.7909-2.5372-5.0743-5.328-5.0743-3.0446 0-5.0743 3.552-5.0743 3.552s-13.447 21.819-27.148 21.819z" />
  </g>
</svg>
